# xmcd
#
# Track frame offsets:
#        150
#        17485
#        35980
#        55540
#        73670
#        97150
#        117755
#        137000
#        157837
#        177947
#
# Disc length: 2602 seconds
#
# Revision: 0
# Processed by: cddbd v1.5.1PL0 Copyright (c) Steve Scherf et al.
# Submitted via: ExactAudioCopy v0.95a5
#
DISCID=800a280a
DTITLE=SABRINA - SABRINA
DYEAR=1986
DGENRE=JPop
TTITLE0=FAR-EYES
TTITLE1=TUR'ING LOVE
TTITLE2=HEART JACK KNIGHT
TTITLE3=VIRGIN STREET
TTITLE4=SLAVE IN STAR
TTITLE5=SMILING
TTITLE6=CORONET BLUE
TTITLE7=ROMANTIC CAPSULE
TTITLE8=DANGER NIGHT
TTITLE9=IMAGE
EXTD=
EXTT0=
EXTT1=
EXTT2=
EXTT3=
EXTT4=
EXTT5=
EXTT6=
EXTT7=
EXTT8=
EXTT9=
PLAYORDER=
